# xmcd
#
# Track frame offsets: 
#        150
#        16207
#        21535
#        24385
#        38730
#        53067
#        71347
#        73560
#        89665
#        91612
#        108735
#        119400
#        131342
#        141975
#        153905
#        171052
#        184945
#        194972
#        202365
#        212190
#        222232
#
# Disc length: 3134 seconds
#
# Revision: 1
# Processed by: cddbd v1.5.1PL0 Copyright (c) Steve Scherf et al.
# Submitted via: ExactAudioCopy v0.95b2
#
DISCID=3e0c3c15
DTITLE=Various Artist - From Spirituals to Swing - The Legendary 1938
DTITLE=and 1939 Carnegie Hall Concerts Produced by John Hammond - Disc 
DTITLE=1 of 3
DYEAR=1900
DGENRE=
TTITLE0=Count Basie Orchestra - Swingin' the Blues
TTITLE1=Count Basie Orchestra - One O'Clock Jump
TTITLE2=John Hammond - Introduction
TTITLE3=Hot Lips Page with the Count Basie Orchestra - Blues with Lips
TTITLE4=Kansas City Five - I Never Knew
TTITLE5=Kansas City Five - Don't Be That Way
TTITLE6=John Hammond - Introduction
TTITLE7=Helen Humes with the Kansas City Five - Blues with Helen
TTITLE8=John Hammond - Introduction
TTITLE9=Count Basie, Walter Page, and Jo Jones - I Ain't Got Nobody
TTITLE10=Meade "Lux" Lewis, Albert Ammons, and Pete Johnson - Jumpin' 
TTITLE10=Blues
TTITLE11=Meade "Lux" Lewis - Honky Tonk Train Blues
TTITLE12=Joe Turner with Pete Johnson - Low Down Dog
TTITLE13=Joe Turner with Pete Johnson - It's All Right Baby
TTITLE14=Albert Ammons - Boogie Woogie
TTITLE15=Meade "Lux" Lewis, Albert Ammons, Pete Johnson, Walter Page, 
TTITLE15=and Jo Jones - Cavalcade of Boogie
TTITLE16=Sister Rosetta Tharpe with Albert Ammons - Rock Me
TTITLE17=Sister Rosetta Tharpe with Albert Ammons - That's All
TTITLE18=Mitchell's Christian Singers - What More Can My Jesus Do?
TTITLE19=Mitchell's Christian Singers - My Poor Mother Died A'Shoutin'
TTITLE20=Mitchell's Christian Singers - Are You Living Humble
EXTD=
EXTT0=
EXTT1=
EXTT2=
EXTT3=
EXTT4=
EXTT5=
EXTT6=
EXTT7=
EXTT8=
EXTT9=
EXTT10=
EXTT11=
EXTT12=
EXTT13=
EXTT14=
EXTT15=
EXTT16=
EXTT17=
EXTT18=
EXTT19=
EXTT20=
PLAYORDER=
